<svg width="34" height="34" viewBox="0 0 34 33" fill="none" xmlns="http://www.w3.org/2000/svg">
<path d="M33.8098 6.52769L30.5788 3.19436C30.4619 3.07369 30.3003 2.99902 30.122 2.99902C29.9436 2.99902 29.7821 3.07369 29.6651 3.19436L15.9059 17.3897L11.1933 12.5277C11.0764 12.407 10.9148 12.3324 10.7365 12.3324C10.5581 12.3324 10.3966 12.407 10.2796 12.5277L7.04871 15.861C6.93175 15.9817 6.85938 16.1484 6.85938 16.3324C6.85938 16.5164 6.93175 16.683 7.04871 16.8037L15.4491 25.4704C15.5661 25.591 15.7276 25.6657 15.9059 25.6657C16.0843 25.6657 16.2458 25.591 16.3628 25.4704L33.8098 7.47036C33.9267 7.34969 33.9991 7.18302 33.9991 6.99902C33.9991 6.81502 33.9267 6.64836 33.8098 6.52769Z" fill="#295135"/>
<path d="M18.1911 27.3537C17.5811 27.9831 16.7701 28.3304 15.9068 28.3304C15.0435 28.3304 14.2326 27.9831 13.6226 27.3537L5.2222 18.6871C4.61285 18.0631 4.27554 17.2244 4.27554 16.3304C4.27554 15.4364 4.61285 14.5977 5.22737 13.9684L8.45312 10.6404C9.06312 10.0111 9.87408 9.66374 10.7374 9.66374C11.6007 9.66374 12.4116 10.0111 13.0216 10.6404L15.9068 13.6164L25.1008 4.13107C22.5264 2.16974 19.3529 0.99707 15.9068 0.99707C7.34168 0.99707 0.398438 8.1604 0.398438 16.9971C0.398438 25.8337 7.34168 32.9971 15.9068 32.9971C24.472 32.9971 31.4153 25.8337 31.4153 16.9971C31.4153 15.9711 31.3164 14.9704 31.1361 13.9984L18.1911 27.3537Z" fill="#295135"/>
</svg>
