<svg width="133" height="41" viewBox="0 0 133 41" fill="none" xmlns="http://www.w3.org/2000/svg">
<path d="M41.9178 5.78357L41.7785 5.30337L41.9178 5.78357ZM0.660558 40.4417C0.699111 40.7152 0.952033 40.9056 1.22547 40.867L5.68139 40.2387C5.95483 40.2002 6.14524 39.9473 6.10669 39.6738C6.06813 39.4004 5.81521 39.21 5.54177 39.2485L1.58095 39.807L1.02246 35.8462C0.983909 35.5728 0.730986 35.3824 0.457551 35.4209C0.184114 35.4595 -0.00630004 35.7124 0.0322595 35.9858L0.660558 40.4417ZM132.925 35.7372C119.096 13.3595 101.468 4.23207 84.6959 1.47138C67.949 -1.28511 52.0915 2.31095 41.7785 5.30337L42.0571 6.26376C52.3263 3.28407 68.0099 -0.261646 84.5335 2.4581C101.032 5.17366 118.404 14.1405 132.075 36.2628L132.925 35.7372ZM41.7785 5.30337C32.2235 8.07585 21.9537 16.8113 14.1163 24.7768C10.1864 28.7709 6.84784 32.5927 4.49185 35.4158C3.31366 36.8275 2.38072 37.9901 1.7419 38.8003C1.42247 39.2054 1.17655 39.5225 1.01024 39.7386C0.927083 39.8466 0.863827 39.9295 0.821233 39.9854C0.799936 40.0134 0.783807 40.0347 0.772938 40.0491C0.767504 40.0562 0.763383 40.0617 0.760591 40.0654C0.759195 40.0672 0.758129 40.0687 0.757394 40.0696C0.75703 40.0701 0.756734 40.0705 0.756552 40.0708C0.756335 40.071 0.756204 40.0712 1.15566 40.3719C1.55511 40.6727 1.55515 40.6726 1.55527 40.6725C1.55542 40.6723 1.55562 40.672 1.55592 40.6716C1.55653 40.6708 1.55747 40.6695 1.55874 40.6679C1.56127 40.6645 1.56513 40.6594 1.57031 40.6526C1.58066 40.6389 1.59626 40.6183 1.61702 40.591C1.65854 40.5364 1.7207 40.4551 1.80272 40.3485C1.96677 40.1353 2.21029 39.8214 2.52716 39.4195C3.16092 38.6157 4.08802 37.4604 5.25961 36.0565C7.60318 33.2483 10.9232 29.4479 14.8291 25.4781C22.6634 17.5159 32.7747 8.95715 42.0571 6.26376L41.7785 5.30337Z" fill="#295135"/>
</svg>
